<svg width="116" height="117" viewBox="0 0 116 117" fill="none" xmlns="http://www.w3.org/2000/svg">
<rect width="115.9" height="117" fill="white"/>
<path d="M82.6862 0H79.5H0V106V117H45H82.6862H115.302V34.5918L115.9 7.11888L115.302 0H82.6862Z" fill="#FF8C00"/>
<path d="M116 0C107.585 4.00833 97.359 12.4584 85.4288 21.45C85.4288 21.45 92.3526 18.7417 99.1699 17.0083C99.1699 17.0083 102.579 15.4917 65.6162 48.5334C65.6162 48.5334 67.427 46.8 78.5051 47.5583C78.5051 47.5583 73.0726 51.35 61.9945 62.8333C61.6749 62.6167 61.3554 62.2917 61.0358 62.075C59.438 61.3167 57.6272 60.8834 55.9229 60.9917C54.2186 61.1 52.5142 61.6417 50.9164 62.6167L50.0643 63.1584L50.1708 62.5083C50.3839 59.6917 49.5317 56.9833 47.8274 54.925C47.4013 54.3833 46.8687 53.8417 46.2296 53.4084C50.8099 42.575 60.9293 24.8084 81.7006 14.95C81.7006 14.95 67.214 16.9 63.0597 22.6417C63.0597 22.6417 69.2378 9.75001 80.5289 0.21668L77.5464 0C66.8944 6.825 53.7925 18.525 44.9513 38.4583C44.9513 38.4583 54.0055 26.8667 57.3076 27.3C57.3076 27.3 48.4665 40.0833 44.7383 52.4333C43.4601 51.7833 42.0753 51.4584 40.6905 51.2417H40.584C40.0514 51.2417 39.4123 51.2417 38.8797 51.2417C38.3471 51.2417 37.708 51.35 37.1754 51.5667C33.2342 52.5417 30.0386 55.7917 29.506 60.0167C29.506 60.2333 29.506 60.45 29.3995 60.6667V61.2083C27.4821 59.6917 25.1387 58.825 22.6887 58.9333C22.6887 58.9333 19.3866 58.9333 17.7888 60.125C17.4692 60.3417 17.1497 60.45 16.9366 60.6667C13.4215 63.1583 10.7585 68.1417 12.6759 73.9917L16.191 83.3083L1.30535e-05 107.5L0 117H38.8797L46.3361 102.7H47.8274C51.3425 102.592 56.8816 101.725 60.1837 100.75C63.9119 99.6667 66.4683 96.6333 67.214 92.95C67.3205 92.5167 67.3205 91.975 67.427 91.4333C73.7117 89.1583 79.1442 88.1833 79.1442 88.1833C76.8007 89.9167 73.9247 93.7083 73.9247 93.7083C86.3875 85.8 112.591 91.975 112.591 91.975C96.6134 84.0667 88.6244 84.6083 88.6244 84.6083C93.2048 81.4667 104.709 80.7083 104.709 80.7083C87.0266 77.5667 74.1377 84.0667 67.3205 89.05C67.3205 88.8333 67.3205 88.6167 67.214 88.4L67.1075 88.075C66.6814 85.9083 65.5097 83.85 63.8053 82.4417C63.2727 82.0083 62.6336 81.575 61.9945 81.1417C61.7815 81.0333 61.6749 80.925 61.4619 80.925L61.888 80.7083C63.8053 79.5167 65.0836 77.7833 65.9357 75.9417C66.8944 73.5583 67.1074 70.9583 66.2553 68.4667C66.0422 67.6 65.6162 66.95 65.2966 66.3C79.5703 56.4417 98.9568 45.0667 113.763 43.6584C113.763 43.6584 108.437 40.4084 90.5418 39.8667C90.5418 39.8667 98.4242 33.7333 116 32V0Z" fill="white"/>
</svg>
