<svg width="656" height="156" viewBox="0 0 656 156" fill="none" xmlns="http://www.w3.org/2000/svg">
<rect width="656" height="156" fill="black"/>
<path d="M195.185 106.927C191.282 100.133 187.09 93.3393 182.609 86.69C178.128 80.0406 173.358 73.6804 168.299 67.7538V106.927H155V47.083H165.986C167.865 48.9622 170.033 51.275 172.346 54.0215C174.659 56.7679 176.972 59.8035 179.429 62.8391C181.886 66.0192 184.199 69.1993 186.512 72.6685C188.825 75.9932 191.138 79.3179 193.161 82.3535V47.083H206.605V106.927H195.185V106.927Z" fill="white"/>
<path d="M231.467 60.3817C235.226 60.3817 238.406 60.8154 241.008 61.6827C243.61 62.55 245.633 63.8509 247.079 65.441C248.669 67.0311 249.681 69.0548 250.259 71.3676C250.837 73.6804 251.271 76.2823 251.271 79.0288V105.771C249.392 106.204 246.934 106.638 243.61 107.216C240.285 107.794 236.382 108.084 231.756 108.084C228.865 108.084 226.119 107.794 223.806 107.361C221.349 106.783 219.325 106.06 217.591 104.759C215.856 103.602 214.555 102.012 213.688 100.133C212.82 98.254 212.242 95.9413 212.242 93.1948C212.242 90.5929 212.82 88.28 213.832 86.4009C214.844 84.5217 216.29 83.0762 218.169 82.0643C219.903 80.9079 221.927 80.1852 224.24 79.7515C226.553 79.3179 228.865 79.0288 231.467 79.0288C233.202 79.0288 234.648 79.1733 235.948 79.1733C237.249 79.3179 238.261 79.4624 239.129 79.7515V78.5951C239.129 76.4269 238.406 74.6923 237.105 73.3913C235.804 72.0903 233.491 71.3676 230.166 71.3676C227.998 71.3676 225.83 71.5121 223.662 71.8012C221.493 72.0903 219.759 72.524 218.169 73.1022L216.579 62.6945C217.301 62.4054 218.313 62.2609 219.325 61.9718C220.482 61.6827 221.638 61.5381 222.939 61.249C224.24 61.1045 225.685 60.8154 227.131 60.6708C228.432 60.3817 230.022 60.3817 231.467 60.3817ZM232.479 97.9649C233.78 97.9649 234.937 97.9649 236.093 97.8204C237.249 97.8204 238.117 97.6759 238.839 97.5313V87.8464C238.261 87.7018 237.539 87.5573 236.527 87.5573C235.515 87.4127 234.503 87.4127 233.636 87.4127C232.479 87.4127 231.323 87.5573 230.166 87.5573C229.155 87.7018 228.143 87.9909 227.42 88.4246C226.553 88.8582 225.974 89.4364 225.541 90.0146C225.107 90.7374 224.818 91.6047 224.818 92.6165C224.818 94.6403 225.541 96.0858 226.842 96.8086C228.287 97.6759 230.166 97.9649 232.479 97.9649Z" fill="white"/>
<path d="M297.383 105.482C295.214 106.06 292.323 106.638 288.854 107.216C285.385 107.794 281.771 108.083 278.013 108.083C274.11 108.083 270.93 107.505 268.328 106.493C265.726 105.482 263.702 104.036 262.257 102.157C260.811 100.278 259.655 98.1095 259.077 95.5075C258.498 92.9056 258.065 90.0146 258.065 86.9791V61.6826H270.93V85.389C270.93 89.581 271.508 92.472 272.52 94.3512C273.676 96.2303 275.7 97.0976 278.591 97.0976C279.458 97.0976 280.47 97.0976 281.482 96.9531C282.494 96.8085 283.506 96.8085 284.228 96.664V61.5381H297.093V105.482H297.383Z" fill="white"/>
<path d="M344.362 101.29C344.362 108.662 342.483 114.155 338.724 117.768C334.966 121.382 329.184 123.117 321.234 123.117C318.487 123.117 315.741 122.828 312.994 122.394C310.248 121.96 307.646 121.238 305.333 120.515L307.646 109.674C309.67 110.541 311.838 111.119 314.006 111.553C316.174 111.986 318.776 112.275 321.523 112.275C325.136 112.275 327.883 111.408 329.328 109.818C330.918 108.228 331.641 106.204 331.641 103.602V102.012C330.196 102.591 328.895 103.169 327.305 103.458C325.859 103.747 324.269 103.892 322.535 103.892C316.319 103.892 311.404 102.012 308.079 98.2541C304.755 94.4957 303.02 89.2919 303.02 82.6425C303.02 79.3179 303.598 76.2823 304.61 73.5359C305.622 70.7894 307.212 68.4766 309.091 66.4529C311.115 64.4292 313.572 62.9836 316.319 61.9718C319.21 60.9599 322.39 60.3817 326.004 60.3817C327.594 60.3817 329.184 60.5263 330.774 60.5263C332.364 60.6708 334.099 60.8154 335.689 61.1045C337.279 61.3936 338.869 61.5381 340.314 61.9718C341.76 62.2609 343.061 62.55 344.217 62.9836V101.29H344.362ZM316.03 82.7871C316.03 90.0146 318.921 93.6284 324.703 93.6284C326.004 93.6284 327.305 93.4839 328.461 93.0502C329.618 92.7611 330.629 92.3274 331.352 91.8938V71.3676C330.774 71.223 329.907 71.223 329.039 71.0785C328.172 70.9339 327.16 70.9339 326.004 70.9339C322.679 70.9339 320.077 72.0903 318.343 74.2586C316.897 76.5714 316.03 79.3179 316.03 82.7871Z" fill="white"/>
<path d="M352.023 106.927V42.0237L364.888 40V61.8272C365.755 61.5381 366.912 61.249 368.213 60.9599C369.514 60.6708 370.814 60.5262 372.115 60.5262C375.729 60.5262 378.909 60.9599 381.367 61.9718C383.824 62.9836 385.703 64.4291 387.293 66.3083C388.739 68.1874 389.751 70.3557 390.473 72.8131C391.052 75.415 391.341 78.1614 391.341 81.3416V106.927H378.476V82.7871C378.476 78.5951 377.897 75.7041 376.886 73.9695C375.874 72.2348 373.85 71.3676 370.959 71.3676C369.803 71.3676 368.791 71.5121 367.779 71.6566C366.767 71.8012 365.9 72.0903 365.032 72.2349V106.783H352.023V106.927Z" fill="white"/>
<path d="M398.135 50.2631L411 48.2394V61.6826H426.467V72.3794H411V88.4245C411 91.171 411.433 93.3392 412.445 94.9293C413.457 96.5194 415.336 97.3867 418.227 97.3867C419.673 97.3867 420.974 97.2421 422.564 96.953C424.009 96.6639 425.31 96.3748 426.611 95.9412L428.49 105.915C426.9 106.493 425.166 107.072 423.286 107.505C421.407 107.939 419.094 108.228 416.348 108.228C412.879 108.228 409.988 107.794 407.675 106.782C405.362 105.771 403.483 104.47 402.182 102.88C400.737 101.145 399.869 99.1213 399.291 96.6639C398.713 94.2066 398.424 91.6046 398.424 88.5691V50.2631H398.135Z" fill="white"/>
<path d="M473.879 61.5381C471.277 70.3557 468.531 78.4505 465.784 86.1117C462.893 93.7729 459.858 101.145 456.533 108.373C455.377 110.975 454.076 113.143 452.919 115.022C451.763 116.901 450.317 118.347 448.872 119.503C447.426 120.659 445.836 121.527 443.957 122.105C442.078 122.683 440.054 122.972 437.597 122.972C435.573 122.972 433.694 122.828 431.96 122.394C430.225 121.96 428.924 121.671 427.768 121.093L430.08 110.83C431.381 111.264 432.538 111.553 433.694 111.842C434.706 111.986 435.862 112.131 437.019 112.131C439.332 112.131 441.066 111.553 442.367 110.252C443.668 108.951 444.68 107.361 445.547 105.048C442.656 99.2659 439.621 92.7611 436.73 85.6781C433.839 78.4506 431.092 70.5002 428.49 61.5381H442.078C442.656 63.8509 443.379 66.1637 444.102 68.7656C444.825 71.3675 445.692 73.9695 446.559 76.7159C447.426 79.4624 448.294 82.0643 449.161 84.5217C450.028 87.1236 450.896 89.2919 451.763 91.4601C452.486 89.4364 453.353 87.1236 454.076 84.5217C454.943 81.9198 455.666 79.3178 456.389 76.7159C457.111 73.9695 457.979 71.3675 458.701 68.7656C459.424 66.1637 460.002 63.7063 460.581 61.5381H473.879V61.5381Z" fill="white"/>
<path d="M525.339 108.228C515.655 108.228 508.138 105.482 503.079 100.133C498.019 94.7848 495.417 86.9791 495.417 77.1496C495.417 72.2349 496.14 67.7538 497.73 63.8509C499.32 59.9481 501.344 56.6234 504.09 54.0215C506.837 51.275 510.017 49.2513 513.775 47.9503C517.534 46.5048 521.581 45.9266 525.918 45.9266C528.52 45.9266 530.688 46.0712 532.856 46.5048C534.88 46.9385 536.759 47.3721 538.349 47.8058C539.939 48.2394 541.24 48.8176 542.252 49.2513C543.264 49.8295 543.986 50.1186 544.565 50.4077L540.662 61.249C538.783 60.2372 536.614 59.3699 534.302 58.7917C531.844 58.0689 529.098 57.7798 525.918 57.7798C523.894 57.7798 521.87 58.0689 519.846 58.7917C517.823 59.5144 516.088 60.5263 514.643 62.1164C513.053 63.7064 511.896 65.5855 511.029 68.0429C510.162 70.5003 509.583 73.3913 509.583 76.8605C509.583 79.607 509.872 82.2089 510.451 84.5217C511.029 86.9791 512.041 89.0028 513.342 90.7374C514.643 92.472 516.522 93.773 518.69 94.7848C520.858 95.7967 523.46 96.2303 526.64 96.2303C528.664 96.2303 530.399 96.0858 531.844 95.9413C533.434 95.6521 534.735 95.5076 536.036 95.0739C537.193 94.7848 538.349 94.3512 539.216 94.0621C540.084 93.6284 540.951 93.3393 541.674 92.9057L545.432 103.747C543.553 104.903 540.806 105.915 537.337 106.927C533.868 107.794 529.82 108.228 525.339 108.228Z" fill="white"/>
<path d="M570.295 60.3817C574.053 60.3817 577.233 60.8154 579.835 61.6827C582.437 62.55 584.461 63.8509 585.906 65.441C587.496 67.0311 588.508 69.0548 589.086 71.3676C589.665 73.6804 590.098 76.2823 590.098 79.0288V105.771C588.219 106.204 585.762 106.638 582.437 107.216C579.112 107.794 575.209 108.084 570.584 108.084C567.693 108.084 564.946 107.794 562.634 107.361C560.176 106.783 558.152 106.06 556.418 104.759C554.683 103.602 553.382 102.012 552.515 100.133C551.648 98.254 551.069 95.9413 551.069 93.1948C551.069 90.5929 551.648 88.28 552.66 86.4009C553.671 84.5217 555.117 83.0762 556.996 82.0643C558.731 80.9079 560.754 80.1852 563.067 79.7515C565.38 79.3179 567.693 79.0288 570.295 79.0288C572.029 79.0288 573.475 79.1733 574.776 79.1733C576.077 79.3179 577.089 79.4624 577.956 79.7515V78.5951C577.956 76.4269 577.233 74.6923 575.932 73.3913C574.631 72.0903 572.318 71.3676 568.994 71.3676C566.825 71.3676 564.657 71.5121 562.489 71.8012C560.321 72.0903 558.586 72.524 556.996 73.1022L555.406 62.6945C556.129 62.4054 557.141 62.2609 558.152 61.9718C559.309 61.6827 560.465 61.5381 561.766 61.249C563.067 61.1045 564.513 60.8154 565.958 60.6708C567.259 60.3817 568.705 60.3817 570.295 60.3817ZM571.307 97.9649C572.608 97.9649 573.764 97.9649 574.92 97.8204C576.077 97.8204 576.944 97.6759 577.667 97.5313V87.8464C577.089 87.7018 576.366 87.5573 575.354 87.5573C574.342 87.4127 573.33 87.4127 572.463 87.4127C571.307 87.4127 570.15 87.5573 568.994 87.5573C567.982 87.7018 566.97 87.9909 566.247 88.4246C565.38 88.8582 564.802 89.4364 564.368 90.0146C563.935 90.7374 563.645 91.6047 563.645 92.6165C563.645 94.6403 564.368 96.0858 565.669 96.8086C567.115 97.6759 568.994 97.9649 571.307 97.9649Z" fill="white"/>
<path d="M601.229 50.2631L614.094 48.2394V61.6826H629.561V72.3794H614.094V88.4245C614.094 91.171 614.527 93.3392 615.539 94.9293C616.551 96.5194 618.43 97.3867 621.321 97.3867C622.767 97.3867 624.068 97.2421 625.658 96.953C627.103 96.6639 628.404 96.3748 629.705 95.9412L631.584 105.915C629.994 106.493 628.26 107.072 626.38 107.505C624.501 107.939 622.188 108.228 619.442 108.228C615.973 108.228 613.082 107.794 610.769 106.782C608.456 105.771 606.577 104.47 605.276 102.88C603.831 101.145 602.963 99.1213 602.385 96.6639C601.807 94.2066 601.518 91.6046 601.518 88.5691V50.2631H601.229Z" fill="white"/>
<path d="M95.9 28L93.1 27.8L13 23L19.8 128.4L20.3 135.7L58.2 133.6L126.9 129.6L128.6 57.5L129.2 30.1L129.3 30L95.9 28Z" fill="#FF8C00"/>
<path d="M129.2 30.0999C121.3 33.7999 111.7 39.2 100.5 47.5C100.5 47.5 107 45 113.4 43.4C113.4 43.4 116.6 42 81.9 72.5C81.9 72.5 83.6 70.8999 94 71.5999C94 71.5999 88.9 75.1 78.5 85.7C78.2 85.5 77.9 85.2 77.6 85C76.1 84.3 74.4 83.9 72.8 84C71.2 84.1 69.6 84.6 68.1 85.5L67.3 86L67.4 85.4C67.6 82.8 66.8 80.3 65.2 78.4C64.8 77.9 64.3 77.4 63.7 77C68 67 77.5 50.6 97 41.5C97 41.5 83.4 43.2999 79.5 48.5999C79.5 48.5999 85.3 36.7 95.9 27.9L93.1 27.7C83.1 34 70.8 44.8 62.5 63.2C62.5 63.2 71 52.5 74.1 52.9C74.1 52.9 65.8 64.6999 62.3 76.0999C61.1 75.4999 59.8 75.2 58.5 75H58.4C57.9 75 57.3 75 56.8 75C56.3 75 55.7 75.1 55.2 75.3C51.5 76.2 48.5 79.1999 48 83.0999C48 83.2999 48 83.5 47.9 83.7V84.2C46.1 82.8 43.9 81.9999 41.6 82.0999C41.6 82.0999 38.5 82.1 37 83.2C36.7 83.4 36.4 83.5 36.2 83.7C32.9 86 30.4 90.6 32.2 96L35.5 104.6L19.8 128.4L20.3 135.7L58.2 133.5L63.8 122.5H65.2C68.5 122.4 73.7 121.6 76.8 120.7C80.3 119.7 82.7 116.9 83.4 113.5C83.5 113.1 83.5 112.6 83.6 112.1C89.5 110 94.6 109.1 94.6 109.1C92.4 110.7 89.7 114.2 89.7 114.2C101.4 106.9 126 112.6 126 112.6C111 105.3 103.5 105.8 103.5 105.8C107.8 102.9 118.6 102.2 118.6 102.2C102 99.3 89.9 105.3 83.5 109.9C83.5 109.7 83.5 109.5 83.4 109.3L83.3 109C82.9 107 81.8 105.1 80.2 103.8C79.7 103.4 79.1 103 78.5 102.6C78.3 102.5 78.2 102.4 78 102.4L78.4 102.2C80.2 101.1 81.4 99.5 82.2 97.8C83.1 95.6 83.3 93.2 82.5 90.9C82.3 90.1 81.9 89.5 81.6 88.9C95 79.8 113.2 69.3 127.1 68C127.1 68 122.1 65 105.3 64.5C105.3 64.5 112.2 59.3 128.7 57.7L129.2 30.0999Z" fill="white"/>
</svg>
