<svg width="200" height="48" viewBox="0 0 200 48" fill="none" xmlns="http://www.w3.org/2000/svg">
<rect width="200" height="47.561" fill="black"/>
<path d="M59.5077 32.5998C58.3178 30.5285 57.0397 28.4572 55.6736 26.4299C54.3074 24.4027 52.853 22.4636 51.3106 20.6567V32.5998H47.2561V14.3546H50.6055C51.1784 14.9275 51.8394 15.6327 52.5446 16.47C53.2497 17.3073 53.9548 18.2328 54.704 19.1583C55.4532 20.1278 56.1583 21.0974 56.8635 22.1551C57.5686 23.1687 58.2737 24.1823 58.8907 25.1078V14.3546H62.9892V32.5998H59.5077V32.5998Z" fill="white"/>
<path d="M70.5693 18.4091C71.7151 18.4091 72.6847 18.5413 73.478 18.8057C74.2712 19.0701 74.8882 19.4667 75.3289 19.9515C75.8137 20.4363 76.1222 21.0533 76.2985 21.7584C76.4748 22.4635 76.607 23.2568 76.607 24.0941V32.2472C76.0341 32.3794 75.2849 32.5116 74.2712 32.6879C73.2576 32.8641 72.0677 32.9523 70.6575 32.9523C69.7761 32.9523 68.9387 32.8641 68.2336 32.7319C67.4844 32.5557 66.8674 32.3353 66.3386 31.9387C65.8097 31.5861 65.4131 31.1013 65.1487 30.5284C64.8842 29.9555 64.708 29.2504 64.708 28.413C64.708 27.6198 64.8842 26.9146 65.1927 26.3417C65.5012 25.7688 65.9419 25.3281 66.5148 25.0196C67.0437 24.6671 67.6607 24.4467 68.3658 24.3145C69.0709 24.1823 69.7761 24.0941 70.5693 24.0941C71.0982 24.0941 71.5389 24.1382 71.9355 24.1382C72.3321 24.1823 72.6406 24.2263 72.9051 24.3145V23.9619C72.9051 23.3009 72.6847 22.772 72.2881 22.3754C71.8914 21.9788 71.1863 21.7584 70.1727 21.7584C69.5116 21.7584 68.8506 21.8025 68.1895 21.8906C67.5285 21.9788 66.9996 22.111 66.5148 22.2872L66.0301 19.1142C66.2504 19.026 66.5589 18.982 66.8674 18.8938C67.22 18.8057 67.5725 18.7616 67.9692 18.6735C68.3658 18.6294 68.8065 18.5413 69.2472 18.4972C69.6438 18.4091 70.1286 18.4091 70.5693 18.4091ZM70.8778 29.8674C71.2745 29.8674 71.627 29.8674 71.9796 29.8233C72.3321 29.8233 72.5966 29.7792 72.8169 29.7352V26.7824C72.6406 26.7384 72.4203 26.6943 72.1118 26.6943C71.8033 26.6502 71.4948 26.6502 71.2304 26.6502C70.8778 26.6502 70.5253 26.6943 70.1727 26.6943C69.8642 26.7384 69.5557 26.8265 69.3354 26.9587C69.0709 27.0909 68.8946 27.2672 68.7624 27.4435C68.6302 27.6638 68.5421 27.9283 68.5421 28.2367C68.5421 28.8537 68.7624 29.2945 69.1591 29.5148C69.5998 29.7792 70.1727 29.8674 70.8778 29.8674Z" fill="white"/>
<path d="M90.6654 32.159C90.0044 32.3353 89.123 32.5116 88.0653 32.6878C87.0076 32.8641 85.9058 32.9523 84.76 32.9523C83.5701 32.9523 82.6005 32.776 81.8073 32.4675C81.014 32.159 80.397 31.7183 79.9563 31.1454C79.5156 30.5725 79.1631 29.9114 78.9868 29.1181C78.8105 28.3249 78.6783 27.4435 78.6783 26.518V18.8057H82.6005V26.0332C82.6005 27.3113 82.7768 28.1927 83.0853 28.7656C83.4379 29.3385 84.0549 29.6029 84.9363 29.6029C85.2007 29.6029 85.5092 29.6029 85.8177 29.5588C86.1262 29.5148 86.4347 29.5148 86.655 29.4707V18.7616H90.5773V32.159H90.6654Z" fill="white"/>
<path d="M104.988 30.881C104.988 33.1286 104.415 34.8033 103.27 35.905C102.124 37.0068 100.361 37.5356 97.9371 37.5356C97.0997 37.5356 96.2624 37.4475 95.425 37.3153C94.5877 37.183 93.7944 36.9627 93.0893 36.7423L93.7944 33.4371C94.4114 33.7015 95.0725 33.8778 95.7335 34.01C96.3946 34.1422 97.1879 34.2303 98.0252 34.2303C99.127 34.2303 99.9643 33.9659 100.405 33.4811C100.89 32.9964 101.11 32.3794 101.11 31.5861V31.1013C100.669 31.2776 100.273 31.4539 99.788 31.542C99.3473 31.6302 98.8625 31.6742 98.3337 31.6742C96.4387 31.6742 94.9403 31.1013 93.9266 29.9555C92.913 28.8097 92.3842 27.2231 92.3842 25.1959C92.3842 24.1823 92.5605 23.2568 92.869 22.4195C93.1775 21.5821 93.6622 20.877 94.2351 20.26C94.8521 19.643 95.6013 19.2023 96.4387 18.8938C97.3201 18.5853 98.2896 18.4091 99.3914 18.4091C99.8762 18.4091 100.361 18.4531 100.846 18.4531C101.33 18.4972 101.859 18.5413 102.344 18.6294C102.829 18.7176 103.314 18.7616 103.754 18.8938C104.195 18.982 104.592 19.0701 104.944 19.2023V30.881H104.988ZM96.3505 25.24C96.3505 27.4435 97.2319 28.5452 98.9947 28.5452C99.3914 28.5452 99.788 28.5012 100.141 28.369C100.493 28.2808 100.802 28.1486 101.022 28.0164V21.7584C100.846 21.7143 100.581 21.7143 100.317 21.6703C100.052 21.6262 99.7439 21.6262 99.3914 21.6262C98.3778 21.6262 97.5845 21.9788 97.0557 22.6398C96.6149 23.3449 96.3505 24.1823 96.3505 25.24Z" fill="white"/>
<path d="M107.324 32.5997V12.8121L111.246 12.1951V18.8497C111.511 18.7616 111.863 18.6734 112.26 18.5853C112.657 18.4971 113.053 18.4531 113.45 18.4531C114.552 18.4531 115.521 18.5853 116.27 18.8938C117.02 19.2023 117.592 19.643 118.077 20.2159C118.518 20.7888 118.826 21.4499 119.047 22.1991C119.223 22.9923 119.311 23.8297 119.311 24.7992V32.5997H115.389V25.2399C115.389 23.9619 115.213 23.0805 114.904 22.5516C114.596 22.0228 113.979 21.7583 113.097 21.7583C112.745 21.7583 112.436 21.8024 112.128 21.8465C111.819 21.8906 111.555 21.9787 111.29 22.0228V32.5556H107.324V32.5997Z" fill="white"/>
<path d="M121.383 15.3241L125.305 14.7072V18.8057H130.02V22.0669H125.305V26.9587C125.305 27.7961 125.437 28.4571 125.745 28.9419C126.054 29.4267 126.627 29.6911 127.508 29.6911C127.949 29.6911 128.346 29.647 128.83 29.5589C129.271 29.4707 129.668 29.3826 130.064 29.2504L130.637 32.2912C130.153 32.4675 129.624 32.6438 129.051 32.776C128.478 32.9082 127.773 32.9964 126.935 32.9964C125.878 32.9964 124.996 32.8642 124.291 32.5557C123.586 32.2472 123.013 31.8505 122.616 31.3658C122.176 30.8369 121.911 30.2199 121.735 29.4707C121.559 28.7215 121.471 27.9283 121.471 27.0028V15.3241H121.383Z" fill="white"/>
<path d="M144.475 18.7616C143.682 21.4499 142.845 23.9178 142.007 26.2536C141.126 28.5893 140.201 30.8369 139.187 33.0404C138.834 33.8337 138.438 34.4947 138.085 35.0676C137.733 35.6406 137.292 36.0813 136.851 36.4338C136.41 36.7864 135.926 37.0508 135.353 37.2271C134.78 37.4034 134.163 37.4915 133.414 37.4915C132.797 37.4915 132.224 37.4474 131.695 37.3152C131.166 37.183 130.769 37.0949 130.417 36.9186L131.122 33.7896C131.519 33.9218 131.871 34.01 132.224 34.0981C132.532 34.1422 132.885 34.1862 133.237 34.1862C133.943 34.1862 134.471 34.01 134.868 33.6133C135.265 33.2167 135.573 32.7319 135.838 32.0268C134.956 30.264 134.031 28.2808 133.149 26.1214C132.268 23.9178 131.431 21.494 130.637 18.7616H134.78C134.956 19.4667 135.177 20.1718 135.397 20.9651C135.617 21.7584 135.882 22.5517 136.146 23.389C136.411 24.2263 136.675 25.0196 136.939 25.7688C137.204 26.5621 137.468 27.2231 137.733 27.8842C137.953 27.2672 138.217 26.5621 138.438 25.7688C138.702 24.9755 138.923 24.1823 139.143 23.389C139.363 22.5517 139.628 21.7584 139.848 20.9651C140.068 20.1718 140.245 19.4227 140.421 18.7616H144.475V18.7616Z" fill="white"/>
<path d="M160.164 32.9964C157.212 32.9964 154.92 32.1591 153.378 30.5285C151.835 28.8979 151.042 26.5181 151.042 23.5213C151.042 22.0229 151.262 20.6567 151.747 19.4668C152.232 18.2769 152.849 17.2633 153.686 16.47C154.523 15.6327 155.493 15.0157 156.639 14.6191C157.785 14.1784 159.019 14.0021 160.341 14.0021C161.134 14.0021 161.795 14.0461 162.456 14.1784C163.073 14.3106 163.646 14.4428 164.131 14.575C164.616 14.7072 165.012 14.8835 165.321 15.0157C165.629 15.192 165.85 15.2801 166.026 15.3683L164.836 18.6735C164.263 18.365 163.602 18.1006 162.897 17.9243C162.148 17.704 161.31 17.6159 160.341 17.6159C159.724 17.6159 159.107 17.704 158.49 17.9243C157.873 18.1447 157.344 18.4532 156.903 18.938C156.418 19.4227 156.066 19.9956 155.801 20.7448C155.537 21.494 155.361 22.3754 155.361 23.4331C155.361 24.2705 155.449 25.0637 155.625 25.7689C155.801 26.5181 156.11 27.1351 156.507 27.6639C156.903 28.1927 157.476 28.5894 158.137 28.8979C158.798 29.2064 159.592 29.3386 160.561 29.3386C161.178 29.3386 161.707 29.2945 162.148 29.2504C162.632 29.1623 163.029 29.1182 163.426 28.986C163.778 28.8979 164.131 28.7657 164.395 28.6775C164.66 28.5453 164.924 28.4572 165.144 28.325L166.29 31.6302C165.717 31.9828 164.88 32.2913 163.822 32.5998C162.765 32.8642 161.531 32.9964 160.164 32.9964Z" fill="white"/>
<path d="M173.87 18.4091C175.016 18.4091 175.986 18.5413 176.779 18.8057C177.572 19.0701 178.189 19.4667 178.63 19.9515C179.115 20.4363 179.423 21.0533 179.599 21.7584C179.776 22.4635 179.908 23.2568 179.908 24.0941V32.2472C179.335 32.3794 178.586 32.5116 177.572 32.6879C176.559 32.8641 175.369 32.9523 173.958 32.9523C173.077 32.9523 172.24 32.8641 171.535 32.7319C170.785 32.5557 170.168 32.3353 169.64 31.9387C169.111 31.5861 168.714 31.1013 168.45 30.5284C168.185 29.9555 168.009 29.2504 168.009 28.413C168.009 27.6198 168.185 26.9146 168.494 26.3417C168.802 25.7688 169.243 25.3281 169.816 25.0196C170.345 24.6671 170.962 24.4467 171.667 24.3145C172.372 24.1823 173.077 24.0941 173.87 24.0941C174.399 24.0941 174.84 24.1382 175.237 24.1382C175.633 24.1823 175.942 24.2263 176.206 24.3145V23.9619C176.206 23.3009 175.986 22.772 175.589 22.3754C175.192 21.9788 174.487 21.7584 173.474 21.7584C172.813 21.7584 172.152 21.8025 171.491 21.8906C170.829 21.9788 170.301 22.111 169.816 22.2872L169.331 19.1142C169.551 19.026 169.86 18.982 170.168 18.8938C170.521 18.8057 170.874 18.7616 171.27 18.6735C171.667 18.6294 172.108 18.5413 172.548 18.4972C172.945 18.4091 173.386 18.4091 173.87 18.4091ZM174.179 29.8674C174.575 29.8674 174.928 29.8674 175.281 29.8233C175.633 29.8233 175.898 29.7792 176.118 29.7352V26.7824C175.942 26.7384 175.721 26.6943 175.413 26.6943C175.104 26.6502 174.796 26.6502 174.531 26.6502C174.179 26.6502 173.826 26.6943 173.474 26.6943C173.165 26.7384 172.857 26.8265 172.636 26.9587C172.372 27.0909 172.196 27.2672 172.063 27.4435C171.931 27.6638 171.843 27.9283 171.843 28.2367C171.843 28.8537 172.063 29.2945 172.46 29.5148C172.901 29.7792 173.474 29.8674 174.179 29.8674Z" fill="white"/>
<path d="M183.301 15.3241L187.224 14.7072V18.8057H191.939V22.0669H187.224V26.9587C187.224 27.7961 187.356 28.4571 187.664 28.9419C187.973 29.4267 188.546 29.6911 189.427 29.6911C189.868 29.6911 190.265 29.647 190.749 29.5589C191.19 29.4707 191.587 29.3826 191.983 29.2504L192.556 32.2912C192.071 32.4675 191.543 32.6438 190.97 32.776C190.397 32.9082 189.692 32.9964 188.854 32.9964C187.797 32.9964 186.915 32.8642 186.21 32.5557C185.505 32.2472 184.932 31.8505 184.535 31.3658C184.095 30.8369 183.83 30.2199 183.654 29.4707C183.478 28.7215 183.39 27.9283 183.39 27.0028V15.3241H183.301Z" fill="white"/>
<path d="M29.2378 8.5366L28.3841 8.47562L3.96341 7.01221L6.03658 39.1463L6.18902 41.372L17.7439 40.7317L38.689 39.5122L39.2073 17.5305L39.3902 9.17683L39.4207 9.14635L29.2378 8.5366Z" fill="#FF8C00"/>
<path d="M39.3902 9.17677C36.9817 10.3048 34.0549 11.9512 30.6402 14.4817C30.6402 14.4817 32.622 13.7195 34.5732 13.2317C34.5732 13.2317 35.5488 12.8048 24.9695 22.1036C24.9695 22.1036 25.4878 21.6158 28.6585 21.8292C28.6585 21.8292 27.1037 22.8963 23.9329 26.128C23.8415 26.067 23.75 25.9756 23.6585 25.9146C23.2012 25.7012 22.6829 25.5792 22.1951 25.6097C21.7073 25.6402 21.2195 25.7926 20.7622 26.067L20.5183 26.2195L20.5488 26.0365C20.6098 25.2439 20.3659 24.4817 19.8781 23.9024C19.7561 23.75 19.6037 23.5975 19.4207 23.4756C20.7317 20.4268 23.6281 15.4268 29.5732 12.6524C29.5732 12.6524 25.4268 13.2012 24.2378 14.817C24.2378 14.817 26.0061 11.189 29.2378 8.50605L28.3842 8.44507C25.3354 10.3658 21.5854 13.6585 19.0549 19.2682C19.0549 19.2682 21.6463 16.006 22.5915 16.128C22.5915 16.128 20.061 19.7256 18.9939 23.2012C18.6281 23.0182 18.2317 22.9268 17.8354 22.8658H17.8049C17.6524 22.8658 17.4695 22.8658 17.3171 22.8658C17.1646 22.8658 16.9817 22.8963 16.8293 22.9573C15.7012 23.2317 14.7866 24.1463 14.6342 25.3353C14.6342 25.3963 14.6342 25.4573 14.6037 25.5182V25.6707C14.0549 25.2438 13.3842 24.9999 12.6829 25.0304C12.6829 25.0304 11.7378 25.0304 11.2805 25.3658C11.189 25.4268 11.0976 25.4573 11.0366 25.5182C10.0305 26.2195 9.2683 27.6219 9.81708 29.2682L10.8232 31.8902L6.03659 39.1463L6.18903 41.3719L17.7439 40.7012L19.4512 37.3475H19.8781C20.8842 37.317 22.4695 37.0731 23.4146 36.7987C24.4817 36.4938 25.2134 35.6402 25.4268 34.6036C25.4573 34.4817 25.4573 34.3292 25.4878 34.1768C27.2866 33.5365 28.8415 33.2621 28.8415 33.2621C28.1707 33.7499 27.3476 34.817 27.3476 34.817C30.9146 32.5914 38.4146 34.3292 38.4146 34.3292C33.8415 32.1036 31.5549 32.256 31.5549 32.256C32.8659 31.3719 36.1585 31.1585 36.1585 31.1585C31.0976 30.2743 27.4085 32.1036 25.4573 33.506C25.4573 33.4451 25.4573 33.3841 25.4268 33.3231L25.3963 33.2317C25.2744 32.6219 24.939 32.0426 24.4512 31.6463C24.2988 31.5243 24.1159 31.4024 23.9329 31.2804C23.872 31.2499 23.8415 31.2195 23.7805 31.2195L23.9024 31.1585C24.4512 30.8231 24.8171 30.3353 25.061 29.817C25.3354 29.1463 25.3963 28.4146 25.1524 27.7134C25.0915 27.4695 24.9695 27.2865 24.8781 27.1036C28.9634 24.3292 34.5122 21.128 38.75 20.7317C38.75 20.7317 37.2256 19.817 32.1037 19.6646C32.1037 19.6646 34.2073 18.0792 39.2378 17.5914L39.3902 9.17677Z" fill="white"/>
</svg>
