<svg width="117" height="113" viewBox="0 0 117 113" fill="none" xmlns="http://www.w3.org/2000/svg">
<path d="M82.9 5L80.1 4.79999L0 0L6.8 105.4L7.3 112.7L45.2 110.6L113.9 106.6L115.6 34.5L116.2 7.09998L116.3 7L82.9 5Z" fill="#FF8C00"/>
<path d="M116.2 7.09995C108.3 10.7999 98.7 16.2 87.5 24.5C87.5 24.5 94 22 100.4 20.4C100.4 20.4 103.6 19 68.9 49.5C68.9 49.5 70.6 47.8999 81 48.5999C81 48.5999 75.9 52.1 65.5 62.7C65.2 62.5 64.9 62.2 64.6 62C63.1 61.3 61.4 60.9 59.8 61C58.2 61.1 56.6 61.6 55.1 62.5L54.3 63L54.4 62.4C54.6 59.8 53.8 57.3 52.2 55.4C51.8 54.9 51.3 54.4 50.7 54C55 44 64.5 27.6 84 18.5C84 18.5 70.4 20.2999 66.5 25.5999C66.5 25.5999 72.3 13.7 82.9 4.89996L80.1 4.69995C70.1 11 57.8 21.8 49.5 40.2C49.5 40.2 58 29.5 61.1 29.9C61.1 29.9 52.8 41.6999 49.3 53.0999C48.1 52.4999 46.8 52.2 45.5 52H45.4C44.9 52 44.3 52 43.8 52C43.3 52 42.7 52.1 42.2 52.3C38.5 53.2 35.5 56.1999 35 60.0999C35 60.2999 35 60.5 34.9 60.7V61.2C33.1 59.8 30.9 58.9999 28.6 59.0999C28.6 59.0999 25.5 59.1 24 60.2C23.7 60.4 23.4 60.5 23.2 60.7C19.9 63 17.4 67.6 19.2 73L22.5 81.5999L6.8 105.4L7.3 112.7L45.2 110.5L50.8 99.5H52.2C55.5 99.4 60.7 98.6 63.8 97.7C67.3 96.7 69.7 93.9 70.4 90.5C70.5 90.1 70.5 89.5999 70.6 89.0999C76.5 86.9999 81.6 86.0999 81.6 86.0999C79.4 87.6999 76.7 91.2 76.7 91.2C88.4 83.9 113 89.5999 113 89.5999C98 82.2999 90.5 82.8 90.5 82.8C94.8 79.9 105.6 79.2 105.6 79.2C89 76.3 76.9 82.3 70.5 86.9C70.5 86.7 70.5 86.5 70.4 86.3L70.3 86C69.9 84 68.8 82.1 67.2 80.8C66.7 80.4 66.1 79.9999 65.5 79.5999C65.3 79.4999 65.2 79.4 65 79.4L65.4 79.2C67.2 78.1 68.4 76.5 69.2 74.8C70.1 72.6 70.3 70.2 69.5 67.9C69.3 67.1 68.9 66.5 68.6 65.9C82 56.8 100.2 46.3 114.1 45C114.1 45 109.1 42 92.3 41.5C92.3 41.5 99.2 36.3 115.7 34.7L116.2 7.09995Z" fill="white"/>
</svg>
